<?xml version="1.0" encoding="UTF-8"?><svg id="_レイヤー_1" xmlns="http://www.w3.org/2000/svg" viewBox="0 0 3003.54 837"><defs><style>.cls-1{fill:#0060ff;}.cls-1,.cls-2,.cls-3{stroke:#000;stroke-miterlimit:10;stroke-width:10px;}.cls-2{fill:lime;}.cls-3{fill:#fff;}</style></defs><g><path class="cls-1" d="m699.83,422.75c0,37.16-7.02,72.02-20.94,104.58-13.77,32.2-32.66,60.17-56.56,83.88l-52.98-79.03c-17.71,16.96-38.72,31.34-63.05,43.14-24.33,11.79-50.5,17.68-78.51,17.68-47.94,0-83.88-13.23-107.85-39.73-23.97-26.48-35.94-58.86-35.94-97.14,0-29.42,4.43-57.02,13.27-82.77s21.39-48.39,37.61-67.89,35.75-34.95,58.61-46.36c22.86-11.4,48.3-17.11,76.33-17.11s51.79,4.61,73.54,13.83c21.75,9.22,39.25,23.42,52.53,42.58l43.44-44.83c16.03,19.56,29.24,41.25,39.56,65.11,13.92,32.18,20.94,66.91,20.94,104.06Z"/><path class="cls-3" d="m622.33,611.21l73.11,109.04c-15.5,13.29-33.37,26.74-53.65,40.39-20.29,13.66-43.32,25.65-69.13,35.96-25.81,10.33-54.75,18.79-86.81,25.45-32.08,6.63-67.66,9.95-106.74,9.95-58.98,0-111.54-8.11-157.67-24.31-46.12-16.22-85.25-39.44-117.36-69.65-32.11-30.22-56.65-66.72-73.62-109.47-16.97-42.75-25.46-90.28-25.46-142.63,0-67.06,11.63-129.72,34.88-187.95,23.25-58.22,55.91-109.08,97.98-152.56,42.07-43.49,91.88-77.77,149.41-102.83,57.53-25.06,120.59-37.6,189.17-37.6s127.55,10.54,179.17,31.57c51.61,21.04,91.07,47.07,118.35,78.07l-134.63,138.94-43.44,44.83c-13.28-19.16-30.78-33.36-52.53-42.58-21.75-9.22-46.26-13.83-73.54-13.83s-53.47,5.71-76.33,17.11c-22.86,11.41-42.39,26.86-58.61,46.36s-28.77,42.14-37.61,67.89-13.27,53.35-13.27,82.77c0,38.28,11.97,70.66,35.94,97.14,23.97,26.5,59.91,39.73,107.85,39.73,28.01,0,54.18-5.89,78.51-17.68,24.33-11.8,45.34-26.18,63.05-43.14l52.98,79.03Z"/></g><g><path class="cls-3" d="m1189.68,759.8h-82.57v-62.39h-1.83c-15.91,23.25-37.77,41.28-65.6,54.13-27.84,12.84-56.42,19.26-85.78,19.26-33.65,0-64.08-5.82-91.29-17.43-27.23-11.62-50.46-27.83-69.73-48.63-19.27-20.79-34.11-44.95-44.5-72.48-10.41-27.52-15.6-57.49-15.6-89.92s5.19-62.53,15.6-90.37c10.39-27.82,25.23-51.98,44.5-72.48,19.26-20.48,42.5-36.54,69.73-48.17,27.21-11.61,57.64-17.43,91.29-17.43,31.19,0,60.55,6.58,88.08,19.73,27.52,13.16,48.63,31.05,63.3,53.67h1.83V66.2h82.57v693.61Zm-225.69-66.06c22.02,0,41.89-3.81,59.64-11.47,17.73-7.64,32.71-18.03,44.95-31.19,12.23-13.15,21.71-29.04,28.44-47.71,6.73-18.66,10.09-39,10.09-61.02s-3.37-42.35-10.09-61.01c-6.74-18.65-16.21-34.55-28.44-47.71-12.24-13.15-27.22-23.54-44.95-31.19-17.75-7.64-37.62-11.47-59.64-11.47s-41.91,3.83-59.64,11.47c-17.74,7.65-32.72,18.05-44.95,31.19-12.24,13.16-21.72,29.06-28.44,47.71-6.74,18.67-10.09,39-10.09,61.01s3.35,42.36,10.09,61.02c6.73,18.66,16.2,34.56,28.44,47.71,12.23,13.16,27.21,23.56,44.95,31.19,17.73,7.66,37.62,11.47,59.64,11.47Z"/><path class="cls-3" d="m1311.19,572.64c0,18.97,4.13,36.24,12.39,51.84,8.26,15.6,19.11,28.9,32.57,39.91,13.44,11.01,29.04,19.58,46.79,25.69,17.73,6.12,36.08,9.17,55.04,9.17,25.69,0,48.01-5.96,66.98-17.89,18.95-11.92,36.38-27.67,52.3-47.25l62.39,47.71c-45.88,59.34-110.1,88.99-192.67,88.99-34.26,0-65.3-5.82-93.12-17.43-27.84-11.62-51.38-27.67-70.65-48.17-19.26-20.48-34.1-44.64-44.49-72.48-10.41-27.83-15.6-57.94-15.6-90.38s5.65-62.53,16.98-90.37c11.31-27.82,26.91-51.98,46.79-72.48,19.87-20.48,43.58-36.54,71.1-48.17,27.52-11.61,57.49-17.43,89.91-17.43,38.53,0,71.11,6.74,97.71,20.19,26.6,13.46,48.47,31.05,65.6,52.76,17.11,21.72,29.5,46.19,37.16,73.4,7.64,27.22,11.47,54.9,11.47,83.03v29.36h-348.64Zm260.56-66.06c-.61-18.35-3.53-35.16-8.71-50.46-5.21-15.28-13-28.58-23.4-39.91-10.4-11.31-23.39-20.19-38.99-26.61-15.6-6.42-33.8-9.63-54.59-9.63s-38.69,3.82-55.51,11.47c-16.83,7.66-31.05,17.59-42.66,29.82-11.63,12.24-20.64,25.85-27.07,40.83-6.43,14.99-9.64,29.82-9.64,44.49h260.56Z"/><g><path class="cls-2" d="m2454.48,331.73c-13.44,0-26.87,1.94-40.31,5.92-13.43,3.87-25.88,9.14-37.13,15.8-11.36,6.57-21.63,14.63-30.8,23.88-9.18,9.35-16.5,19.79-21.96,31.19h-1.85v-65.93h-82.58v428.22h82.58v-215.08c0-46.89,10.7-81.51,32.11-103.88,1.2-1.18,2.4-2.36,3.6-3.54,21.19-19.9,50.9-29.79,89.02-29.79h20.1v-86.13c-4.15-.43-8.41-.65-12.78-.65Z"/><path class="cls-2" d="m2990.84,585.63c-5.14-13.84-12.25-25.59-21.29-35.23-9.07-9.63-19.83-17.46-32.31-23.49-12.48-6.01-25.82-11.14-40.01-15.35-7.34-1.81-16.15-3.91-26.43-6.33-10.27-2.39-19.94-6.01-28.99-10.83-9.06-4.81-16.89-11.15-23.5-18.97-6.6-7.82-9.91-18.07-9.91-30.72,0-15.64,5.75-27.55,17.25-35.67,11.5-8.14,25.08-12.2,40.75-12.2,16.63,0,30.71,4.06,42.21,12.2,11.49,8.12,21.16,18.21,29,30.26l51.39-47.88c-12.73-25.29-29.86-43.36-51.39-54.2-21.54-10.83-44.05-16.26-67.54-16.26-16.15,0-32.19,2.71-48.09,8.13-15.91,5.42-30.1,13.55-42.58,24.39s-22.51,24.55-30.1,41.1c-7.59,16.57-11.37,36-11.37,58.27,0,20.48,2.93,37.64,8.8,51.49,5.88,13.86,13.7,25.29,23.5,34.32,9.78,9.03,21.04,16.27,33.77,21.68,12.72,5.42,26.17,10.25,40.37,14.45,7.34,1.81,15.79,4.07,25.33,6.77,9.55,2.71,18.6,6.32,27.16,10.84,8.56,4.52,15.9,10.7,22.03,18.52,6.11,7.84,9.18,17.77,9.18,29.81,0,9.03-2.09,17.02-6.24,23.93-4.17,6.92-9.55,12.64-16.15,17.16-6.61,4.52-14.21,7.84-22.76,9.93-8.57,2.12-17.01,3.16-25.33,3.16-19.09,0-35.24-5.1-48.45-15.35-13.22-10.24-25.22-21.98-35.98-35.23l-49.92,50.58c17.13,28.91,36.58,48.78,58.36,59.63,21.78,10.84,47.1,16.26,75.99,16.26,17.13,0,34.14-2.41,51.02-7.23,16.89-4.8,31.94-12.64,45.15-23.48,13.22-10.84,23.98-24.85,32.3-42,8.32-17.17,12.48-37.79,12.48-61.88,0-19.88-2.56-36.73-7.7-50.59Z"/><path class="cls-2" d="m2673.84,696.02c-10.38,1.7-20.42,2.56-30.25,2.56-15.95,0-27.97-2.78-36.27-8.22-8.19-5.43-14.31-12.58-18.35-21.55-3.93-8.85-6.22-18.88-6.88-30.08-.54-11.2-.87-22.52-.87-34.04v-163.02h118.29v-88.98h-118.29v-114.38h-82.57v394c0,16.65.76,33.08,2.29,49.41,1.53,16.42,6.44,31.15,14.64,44.38,6.88,10.88,16.82,20.16,29.92,27.63,2.73,1.6,5.57,3.09,8.63,4.59,17.48,8.32,42.05,12.48,73.84,12.48,8.62,0,20.64-.96,36.26-3.09,15.62-2.03,28.29-5.44,38.12-10.67v-70.63c-8.63,4.59-18.13,7.79-28.51,9.61Z"/><path class="cls-2" d="m2202.68,723.82c-.55-12.69-.88-26.56-.88-41.62v-218.52c0-18.72-3.49-36.68-10.59-53.77-6.99-17.21-17.8-32.37-32.55-45.6-6-5.42-12.69-10.39-20.08-14.91,10.62-22.79,15.94-50.32,15.94-82.61,0-35.94-6.84-66.18-20.5-90.7-13.67-24.52-32-44.12-55-58.83s-49.34-25.16-79-31.38c-29.67-6.2-60.84-9.31-93.5-9.31h-210v694.22h84v-311.81h142c24.66,0,50.66-2.94,78-8.82,27.33-5.89,52.5-16.01,75.5-30.4,5.66-3.53,11.06-7.38,16.21-11.55,2.4,1.96,4.66,4.03,6.79,6.2,8.63,8.71,14.97,18.5,19.34,29.36,4.26,10.86,6.33,21.62,6.33,32.48v18.07h-60.51c-32.98,0-64.11,2.58-93.17,7.74-29.05,5.05-54.39,13.55-76.12,25.27-21.74,11.72-38.78,26.99-51.34,45.6-12.56,18.71-18.79,41.83-18.79,69.58,0,21.07,3.94,39.57,11.91,55.48,7.97,16.03,18.79,29.36,32.55,40.22,13.76,10.87,29.82,19.04,48.17,24.42,18.35,5.38,37.57,8.17,57.78,8.17,33.09,0,62.14-5.81,87.15-17.21,25.13-11.39,46.86-30.96,65.21-58.71h1.75c0,21.72.98,43.33,2.84,65.06h73.4c-1.31-11.4-2.19-23.55-2.84-36.13Zm-77.99-142.7c0,14.41-2.07,29.03-6.33,43.76-4.37,14.74-11.36,28.18-21.19,40.22-9.72,12.05-22.61,21.84-38.45,29.36-15.95,7.53-35.17,11.29-57.89,11.29-28.72,0-51.44-5.48-68.26-16.24-16.82-10.87-25.23-28.61-25.23-53.34,0-16.89,5.35-30.76,16.05-41.51,10.71-10.86,24.47-19.25,41.29-25.37,16.82-5.92,35.39-10,55.92-12.16,20.54-2.15,40.52-3.11,60.07-3.11h44.02v27.1Zm-344.17-198.6v-229.44h142c42,0,76.16,9.31,102.5,27.94,26.33,18.63,39.5,47.55,39.5,86.78,0,21.23-3.86,39.44-11.58,54.64-6.53,12.88-15.85,23.59-27.92,32.14-20.1,14.22-44.75,23-73.96,26.37-9.07,1.05-18.58,1.58-28.54,1.58h-142Z"/></g></g></svg>